<svg xmlns="http://www.w3.org/2000/svg" viewBox="0 0 64 64" width="64" height="64" role="img" aria-label="Document with checkmark">
  <defs>
    <linearGradient id="bg" x1="0" x2="1" y1="0" y2="1">
      <stop offset="0%" stop-color="#2563EB" />
      <stop offset="100%" stop-color="#06B6D4" />
    </linearGradient>
  </defs>
  <rect width="64" height="64" rx="12" fill="url(#bg)" />

  <g transform="translate(8,8)">
    <path d="M36 0H8a4 4 0 0 0-4 4v40a4 4 0 0 0 4 4h24a4 4 0 0 0 4-4V12L36 0z" fill="#fff" opacity="0.97" />
    <path d="M36 0v12h12" transform="translate(-8,-8)" fill="none" />
    <path d="M36 0v12h8" fill="#f3f4f6" opacity="0.6" transform="translate(-8,-8)" />

    <rect x="6" y="12" width="18" height="2" rx="1" fill="#e6e7e9" />
    <rect x="6" y="18" width="22" height="2" rx="1" fill="#e6e7e9" />
    <rect x="6" y="24" width="14" height="2" rx="1" fill="#e6e7e9" />

    <circle cx="34" cy="36" r="10" fill="#10B981" />
    <path d="M28 36l3.5 3.5L40 31" fill="none" stroke="#fff" stroke-width="3" stroke-linecap="round" stroke-linejoin="round" />
  </g>
</svg>